<?xml version="1.0" encoding="UTF-8"?>
<svg width="1200" height="600" viewBox="0 0 1200 600" xmlns="http://www.w3.org/2000/svg">
  <!-- 배경 그라데이션 -->
  <defs>
    <linearGradient id="bgGradient" x1="0%" y1="0%" x2="100%" y2="100%">
      <stop offset="0%" stop-color="#1a5f7a" />
      <stop offset="100%" stop-color="#0d3c4f" />
    </linearGradient>
  </defs>
  
  <!-- 배경 -->
  <rect width="100%" height="100%" fill="url(#bgGradient)" />
  
  <!-- 추상적인 도시 스카이라인 -->
  <path d="M0,500 L50,500 L50,450 L100,450 L100,470 L150,470 L150,420 L200,420 L200,450 L250,450 L250,400 L300,400 L300,450 L350,450 L350,430 L400,430 L400,380 L450,380 L450,420 L500,420 L500,370 L550,370 L550,420 L600,420 L600,380 L650,380 L650,430 L700,430 L700,400 L750,400 L750,350 L800,350 L800,400 L850,400 L850,430 L900,430 L900,380 L950,380 L950,420 L1000,420 L1000,370 L1050,370 L1050,420 L1100,420 L1100,450 L1150,450 L1150,470 L1200,470 L1200,500 L0,500 Z" fill="#0a2c3b" opacity="0.8" />
  
  <!-- 산 실루엣 -->
  <path d="M0,400 Q300,200 600,350 T1200,300 L1200,500 L0,500 Z" fill="#072837" opacity="0.7" />

  <!-- 장식용 원형 요소들 -->
  <circle cx="200" cy="150" r="5" fill="#ffffff" opacity="0.3" />
  <circle cx="320" cy="220" r="3" fill="#ffffff" opacity="0.2" />
  <circle cx="450" cy="100" r="4" fill="#ffffff" opacity="0.3" />
  <circle cx="580" cy="180" r="6" fill="#ffffff" opacity="0.2" />
  <circle cx="700" cy="120" r="3" fill="#ffffff" opacity="0.3" />
  <circle cx="800" cy="200" r="5" fill="#ffffff" opacity="0.2" />
  <circle cx="900" cy="150" r="4" fill="#ffffff" opacity="0.3" />
  <circle cx="1000" cy="220" r="3" fill="#ffffff" opacity="0.2" />
  <circle cx="1100" cy="120" r="5" fill="#ffffff" opacity="0.3" />
  
  <!-- 장식용 선 요소들 -->
  <line x1="100" y1="300" x2="130" y2="320" stroke="#ffffff" stroke-width="1" opacity="0.2" />
  <line x1="300" y1="250" x2="350" y2="270" stroke="#ffffff" stroke-width="1" opacity="0.2" />
  <line x1="500" y1="280" x2="550" y2="300" stroke="#ffffff" stroke-width="1" opacity="0.2" />
  <line x1="700" y1="240" x2="750" y2="260" stroke="#ffffff" stroke-width="1" opacity="0.2" />
  <line x1="900" y1="270" x2="950" y2="290" stroke="#ffffff" stroke-width="1" opacity="0.2" />
  <line x1="1100" y1="230" x2="1150" y2="250" stroke="#ffffff" stroke-width="1" opacity="0.2" />
</svg>